<svg xmlns="http://www.w3.org/2000/svg" viewBox="0 0 937.5 933.46"><defs><style>.cls-1{fill:#00e4f3;}.cls-2{fill:#00325b;}.cls-3{fill:#00335c;}.cls-4{fill:#00e3f2;}</style></defs><title>1Recurso 2</title><g id="Capa_2" data-name="Capa 2"><g id="Capa_1-2" data-name="Capa 1"><path class="cls-1" d="M937.25,466.6c0,10.43.64,20.91-.15,31.27-1.13,14.84-2.87,29.67-5.13,44.38a432.61,432.61,0,0,1-19.15,76,467.35,467.35,0,0,1-90.37,155.27,471.95,471.95,0,0,1-154,115.65,461.63,461.63,0,0,1-101.07,33.86A470.73,470.73,0,0,1,516.18,931a458.73,458.73,0,0,1-49.71,2.44,474.9,474.9,0,0,1-138.31-21.61A467.85,467.85,0,0,1,160.6,817.91,463.32,463.32,0,0,1,84,732.71,461.87,461.87,0,0,1,9.36,558.47a412.81,412.81,0,0,1-7.71-57.21C1,490,0,478.79,0,467.55a470.46,470.46,0,0,1,5-66.83A463,463,0,0,1,95.49,185,470.37,470.37,0,0,1,306.68,29,444.25,444.25,0,0,1,386.44,7.43c14.53-2.47,29.24-4,43.9-5.59A360.39,360.39,0,0,1,477.15.11a476.77,476.77,0,0,1,116.23,16.6A468.29,468.29,0,0,1,777,114.85a478.09,478.09,0,0,1,37.92,36.73,462.25,462.25,0,0,1,50.66,65.86,472,472,0,0,1,25.62,45.68,463.88,463.88,0,0,1,35.36,100.1,495,495,0,0,1,9,52.78A340.64,340.64,0,0,1,937.25,466.6ZM793.74,365.49a154,154,0,0,0-3-32.78,189.35,189.35,0,0,0-35.64-77.65c-18.25-23.83-40.74-41.9-69.19-52.18-27-9.75-54.58-12.26-82.68-6.16-27.12,5.88-49.3,20.17-67.34,41-6.46,7.48-12.57,15.26-17.06,24.1-5.37,10.56-9.28,21.74-12.82,33a222.2,222.2,0,0,0-8.71,42.53,213.54,213.54,0,0,0,1.38,56A205.41,205.41,0,0,0,526,468.37c6.31,10.54,12.68,21,21.53,29.68,34,33.22,75.05,45.53,121.61,39,29.8-4.15,54.66-18.65,75-40.69,16.66-18,28.58-39.12,37.46-61.81C790.28,412.46,793.39,389.16,793.74,365.49ZM480.22,821.16c5.25-.45,15.69-.85,26-2.35a195,195,0,0,0,70.55-24.57c29.52-17.2,53-40.43,69.35-70.54a166.42,166.42,0,0,0,19.37-65.13c.64-7-4.43-13.08-12.18-12.57-3.79.25-7.59.41-11.39.67-7.7.54-15.32.87-22.73,3.87-9.46,3.84-16.22,9.67-19.49,19.59C595.45,683,589.11,695,582.73,706.91S570,730.78,562.06,741.78c-10.52,14.54-24,24.81-41.49,29.54a125.11,125.11,0,0,1-23.69,4c-19.59,1.4-39.13,1.52-58.54-2-14.94-2.68-28.67-8.15-40.32-18.18a94.71,94.71,0,0,1-19.3-23.39c-10.64-17.8-19.93-36.28-26.88-55.87-1.41-4-3-7.89-4.56-11.82a17,17,0,0,0-6.46-7.61c-3.68-2.6-7.77-3.69-12.14-4.43-10.68-1.82-21.3-4-32-5.81-6.57-1.13-12.61,4.32-11.88,10.86a215.69,215.69,0,0,0,3.46,23.79C297.77,723,320.74,756.4,355.07,782,390.58,808.5,430.88,820.86,480.22,821.16ZM401.08,402.3c8.48.46,15.8-2.67,22.61-7.15,8.63-5.69,15.16-13.44,20.48-22.19,4.2-6.91,5.78-14.63,5.79-22.62a24.66,24.66,0,0,0-5.54-15.2c-3.11-4.06-7.27-5.85-12.08-7.06-15.94-4-32.32-4.5-48.53-6.15-11.46-1.16-23.07-.79-34.62-1.15-2.95-.09-5.91-.72-8.83-.51-10.11.72-20.2,1.7-30.3,2.59q-22.71,2-45.43,4c-6.87.61-13.86.65-20.59,2-28.09,5.6-54.71,15.27-79.2,30.33a61.65,61.65,0,0,0-16.61,14.89c-5.13,6.66-4.69,13.3,1.12,19.39a23.4,23.4,0,0,0,4.82,4.08c3.87,2.27,7.88,4.34,11.9,6.33,5,2.5,10.13,4.89,15.24,7.22a8.36,8.36,0,0,0,4,1c6.87-.6,13.8-1,20.55-2.27,7.44-1.4,14.71-3.75,22.08-5.55,4.9-1.2,9.81-2.66,14.8-3.14,9.53-.93,19.11-1.22,28.67-1.81q24-1.48,48.07-3a140,140,0,0,1,24,.63c9.23,1,18.51,1.62,27.76,2.49C381.2,400.3,391.14,401.32,401.08,402.3Z"/><path class="cls-2" d="M793.74,365.49c-.35,23.67-3.46,47-12.12,69.1-8.88,22.69-20.8,43.78-37.46,61.81-20.37,22-45.23,36.54-75,40.69-46.56,6.49-87.59-5.82-121.61-39-8.85-8.65-15.22-19.14-21.53-29.68a205.41,205.41,0,0,1-27.33-74.93,213.54,213.54,0,0,1-1.38-56A222.2,222.2,0,0,1,506,294.89c3.54-11.29,7.45-22.47,12.82-33,4.49-8.84,10.6-16.62,17.06-24.1,18-20.87,40.22-35.16,67.34-41,28.1-6.1,55.67-3.59,82.68,6.16,28.45,10.28,50.94,28.35,69.19,52.18a189.35,189.35,0,0,1,35.64,77.65A154,154,0,0,1,793.74,365.49Zm-88-1.5a80.32,80.32,0,0,1-.94-9c-.08-8.65-2.3-16.86-4.83-25-3.69-11.84-9.73-22.54-16.75-32.7-5.27-7.64-11-15-18.64-20.3s-15.85-10.23-25-13.2c-9.32-3-17.25-1-23.68,6.19a65.67,65.67,0,0,0-7.91,10.91c-11.77,20.31-17.21,42.67-19.74,65.68a131.06,131.06,0,0,0,.44,30.71,154.86,154.86,0,0,0,13.58,46.4c6.06,12.9,13.41,24.83,25.09,33.45a93.92,93.92,0,0,0,11.49,7,13.33,13.33,0,0,0,9.06,1.31c6.93-1.47,13.64-3.51,18.48-9.25,1.45-1.73,3.1-3.28,4.52-5,11.55-14.2,21.1-29.52,26.85-47.05C702,391.52,705.52,378.83,705.77,364Z"/><path class="cls-3" d="M480.22,821.16c-49.34-.3-89.64-12.66-125.15-39.15-34.33-25.61-57.3-59-66.78-101.09a215.69,215.69,0,0,1-3.46-23.79c-.73-6.54,5.31-12,11.88-10.86,10.67,1.83,21.29,4,32,5.81,4.37.74,8.46,1.83,12.14,4.43a17,17,0,0,1,6.46,7.61c1.54,3.93,3.15,7.84,4.56,11.82,7,19.59,16.24,38.07,26.88,55.87A94.71,94.71,0,0,0,398,755.2c11.65,10,25.38,15.5,40.32,18.18,19.41,3.49,39,3.37,58.54,2a125.11,125.11,0,0,0,23.69-4c17.47-4.73,31-15,41.49-29.54,8-11,14.3-22.94,20.67-34.87s12.72-23.9,16.95-36.78c3.27-9.92,10-15.75,19.49-19.59,7.41-3,15-3.33,22.73-3.87,3.8-.26,7.6-.42,11.39-.67,7.75-.51,12.82,5.58,12.18,12.57A166.42,166.42,0,0,1,646.1,723.7c-16.36,30.11-39.83,53.34-69.35,70.54a195,195,0,0,1-70.55,24.57C495.91,820.31,485.47,820.71,480.22,821.16Z"/><path class="cls-2" d="M401.08,402.3c-9.94-1-19.88-2-29.83-2.92-9.25-.87-18.53-1.46-27.76-2.49a140,140,0,0,0-24-.63q-24,1.51-48.07,3c-9.56.59-19.14.88-28.67,1.81-5,.48-9.9,1.94-14.8,3.14-7.37,1.8-14.64,4.15-22.08,5.55-6.75,1.27-13.68,1.67-20.55,2.27a8.36,8.36,0,0,1-4-1c-5.11-2.33-10.2-4.72-15.24-7.22-4-2-8-4.06-11.9-6.33a23.4,23.4,0,0,1-4.82-4.08c-5.81-6.09-6.25-12.73-1.12-19.39a61.65,61.65,0,0,1,16.61-14.89c24.49-15.06,51.11-24.73,79.2-30.33,6.73-1.34,13.72-1.38,20.59-2q22.71-2,45.43-4c10.1-.89,20.19-1.87,30.3-2.59,2.92-.21,5.88.42,8.83.51,11.55.36,23.16,0,34.62,1.15,16.21,1.65,32.59,2.16,48.53,6.15,4.81,1.21,9,3,12.08,7.06a24.66,24.66,0,0,1,5.54,15.2c0,8-1.59,15.71-5.79,22.62-5.32,8.75-11.85,16.5-20.48,22.19C416.88,399.63,409.56,402.76,401.08,402.3Z"/><path class="cls-4" d="M705.77,364c-.25,14.84-3.81,27.53-7.93,40.13-5.75,17.53-15.3,32.85-26.85,47.05-1.42,1.74-3.07,3.29-4.52,5-4.84,5.74-11.55,7.78-18.48,9.25a13.33,13.33,0,0,1-9.06-1.31,93.92,93.92,0,0,1-11.49-7c-11.68-8.62-19-20.55-25.09-33.45a154.86,154.86,0,0,1-13.58-46.4,131.06,131.06,0,0,1-.44-30.71c2.53-23,8-45.37,19.74-65.68A65.67,65.67,0,0,1,616,270c6.43-7.18,14.36-9.22,23.68-6.19,9.1,3,17.19,7.79,25,13.2s13.37,12.66,18.64,20.3c7,10.16,13.06,20.86,16.75,32.7,2.53,8.13,4.75,16.34,4.83,25A80.32,80.32,0,0,0,705.77,364Z"/></g></g></svg>